<svg width="476" height="65" viewBox="0 0 476 65" fill="none" xmlns="http://www.w3.org/2000/svg">
<path d="M46.9127 63.5901C40.7248 62.0573 37.0333 58.4114 35.944 52.7268C35.8684 52.3399 35.7625 44.5125 35.7171 35.301C35.6414 21.7295 35.5809 18.4407 35.4145 17.8306C35.2632 17.3395 34.9304 16.774 34.3857 16.1342C33.4931 15.1074 32.8426 14.646 31.5566 14.1698C30.7547 13.8722 30.4975 13.8573 23.644 13.8722C19.2566 13.8871 16.3669 13.8425 16.0038 13.7532C15.6861 13.6639 15.0204 13.2323 14.4606 12.7413C13.916 12.2799 12.6905 11.3275 11.7374 10.6281C10.7843 9.9436 8.74182 8.35132 7.19865 7.11619C5.65548 5.88106 3.68869 4.31854 2.8112 3.66377C1.93371 3.009 0.920057 2.19054 0.541828 1.87803C-0.078467 1.32743 -0.108725 1.26791 0.163599 1.14886C0.345149 1.07445 8.59053 1.04469 20.0584 1.08933C37.7444 1.16374 39.7868 1.20838 41.0879 1.4316C42.7824 1.7441 44.3256 2.41376 45.7931 3.4852C47.7901 4.94355 48.8492 6.46142 49.3484 8.6043C49.6208 9.73527 49.6359 11.0448 49.6359 36.6999C49.6359 63.1734 49.6359 63.6198 49.3484 63.8282C48.9702 64.096 48.8946 64.096 46.9127 63.5901Z" fill="url(#paint0_linear_245_195)"/>
<path d="M200.324 63.8871C196.739 63.7681 194.605 63.53 193.365 63.1133C190.399 62.146 188.009 59.393 187.162 55.9852C187.026 55.4644 186.753 54.6013 186.572 54.0656C186.375 53.5298 186.042 52.5328 185.83 51.8334C185.604 51.134 185.24 49.9286 184.998 49.1548C184.741 48.381 184.499 47.503 184.439 47.2202C184.393 46.9375 184.151 46.1042 183.909 45.3601C183.667 44.6309 183.122 42.9196 182.699 41.5654C182.275 40.2112 181.685 38.3808 181.398 37.4731C181.11 36.5802 180.717 35.3302 180.52 34.7201C180.127 33.5296 179.204 30.4194 178.947 29.4373C178.856 29.1099 178.584 28.3063 178.342 27.6515C178.099 26.9968 177.782 26.1634 177.646 25.7914C177.282 24.7646 176.632 22.4134 176.405 21.2973C176.299 20.7318 176.072 20.0324 175.906 19.7348C175.754 19.4223 175.573 18.9014 175.528 18.5592C175.391 17.83 174.635 16.4907 174.226 16.2675C173.606 15.9401 172.835 16.8181 172.638 18.0532C172.577 18.4252 172.366 19.1247 172.169 19.6306C171.972 20.1217 171.806 20.6277 171.806 20.7467C171.806 21.0741 170.762 25.3152 170.368 26.5355C170.172 27.1456 169.96 27.9492 169.899 28.3212C169.839 28.6932 169.673 29.3182 169.506 29.7051C169.355 30.1069 169.098 31.0444 168.916 31.7885C168.75 32.5474 168.477 33.6338 168.311 34.1992C167.388 37.3689 167.07 38.4404 166.813 39.11C166.541 39.8094 166.042 41.8928 165.512 44.5416C165.179 46.2083 164.514 48.753 163.621 51.759C163.364 52.6667 162.955 54.0358 162.728 54.8096C161.79 57.9644 160.973 59.5269 159.566 60.9109C158.522 61.9377 157.115 62.7561 155.618 63.2323C154.437 63.6044 145.526 63.7383 145.39 63.396C145.345 63.277 145.511 62.652 145.768 62.027C146.026 61.402 146.237 60.7472 146.237 60.5686C146.237 60.39 146.389 59.9436 146.555 59.5716C146.722 59.2144 146.994 58.3364 147.16 57.637C147.312 56.9376 147.735 55.5983 148.068 54.6608C148.416 53.7233 148.794 52.5774 148.915 52.1459C149.036 51.6995 149.248 51.1786 149.369 51C149.49 50.8215 149.717 50.0774 149.868 49.3482C150.035 48.6339 150.413 47.2649 150.701 46.3274C151.003 45.3899 151.397 44.125 151.563 43.5148C151.714 42.9047 151.956 42.2053 152.077 41.9672C152.214 41.7291 152.471 40.9553 152.667 40.241C152.864 39.5416 153.212 38.3957 153.424 37.6963C153.651 36.9969 153.953 35.985 154.105 35.4493C154.256 34.8987 154.528 34.1546 154.695 33.7826C154.876 33.4105 155.012 32.9939 155.012 32.8748C155.012 32.7558 155.179 32.1159 155.391 31.476C155.602 30.8212 155.935 29.6605 156.147 28.9016C156.873 26.1337 157.1 25.3896 157.736 23.6336C158.386 21.7735 159.097 19.6157 159.491 18.202C159.612 17.7556 159.854 17.0115 160.005 16.5651C160.156 16.1187 160.535 14.8091 160.837 13.6633C161.73 10.2704 162.925 6.77332 163.712 5.25544C164.302 4.12448 165.739 2.78518 167.01 2.18993C168.719 1.40123 170.384 1.17801 173.848 1.29706C175.437 1.34171 177.222 1.47564 177.827 1.59468C181.367 2.30898 183.259 4.55603 184.983 10.0769C185.21 10.821 185.588 11.9668 185.846 12.6216C186.088 13.2764 186.647 14.8538 187.086 16.1187C187.525 17.3836 188.009 18.6633 188.145 18.9461C188.297 19.2288 188.463 19.6901 188.523 19.9729C188.584 20.2556 188.796 20.7765 188.992 21.1485C189.189 21.5205 189.356 21.9074 189.356 22.0265C189.356 22.1455 189.794 23.3211 190.324 24.6456C190.853 25.97 191.474 27.6218 191.701 28.3212C191.928 29.0206 192.321 30.1516 192.548 30.851C192.79 31.5504 192.987 32.2349 192.987 32.354C192.987 32.473 193.123 32.8451 193.304 33.1576C193.758 34.0207 194.424 35.8362 195.195 38.2916C195.559 39.482 195.997 40.7172 196.149 41.0446C196.3 41.372 196.572 42.0714 196.754 42.6071C196.935 43.1428 197.253 44.0059 197.465 44.5416C197.843 45.5238 198.448 47.1458 199.023 48.7828C199.205 49.2738 199.447 49.8393 199.553 50.0477C199.674 50.256 199.84 50.7173 199.931 51.0893C200.037 51.4614 200.264 52.1608 200.46 52.6519C201.58 55.4941 202.079 56.9079 202.669 58.7531C203.017 59.899 203.789 61.6996 204.197 62.3395C204.364 62.6073 204.56 63.0389 204.636 63.2919C204.742 63.6639 204.712 63.7681 204.485 63.8871C204.333 63.9764 204.016 64.021 203.774 64.0062C203.547 63.9913 201.988 63.9318 200.324 63.8871Z" fill="url(#paint1_linear_245_195)"/>
<path d="M321.882 63.859C321.867 63.7549 321.882 51.6714 321.882 37.0284C321.897 8.62028 321.867 9.67684 322.623 8.30778C322.789 7.98039 322.941 7.66789 322.941 7.60836C322.941 7.54884 323.213 7.07264 323.561 6.53692C324.681 4.76607 328.281 2.44461 330.657 1.93865C332.578 1.52198 334.726 1.20948 334.893 1.31365C335.059 1.41781 335.074 48.2785 334.908 53.4125L334.817 56.0911L334.061 57.3113C332.291 60.1983 329.688 62.237 326.647 63.115C325.24 63.5316 322.835 64.0376 322.305 64.0376C322.063 64.0376 321.882 63.9483 321.882 63.859Z" fill="url(#paint2_linear_245_195)"/>
<path d="M118.021 63.5906C113.725 62.9507 108.52 60.287 105.767 57.3256C104.541 56.0161 103.134 54.1113 102.438 52.8018C102.03 52.0726 101.591 51.2839 101.44 51.0756C101.288 50.8672 100.956 49.9743 100.714 49.0964L100.245 47.4892V41.9683C100.229 38.9474 100.29 36.4028 100.35 36.3432C100.426 36.2688 100.85 36.3879 101.304 36.5962C102.408 37.1022 105.131 38.2183 106.826 38.8433C109.095 39.6915 112.227 41.135 113.059 41.7451C113.921 42.3552 113.952 42.4296 114.073 44.0517C114.133 44.7064 114.345 45.5695 114.632 46.3433C115.041 47.3701 115.268 47.7273 116.115 48.5606C117.446 49.8851 118.339 50.4505 119.731 50.8821C121.259 51.3434 123.195 51.3583 125.041 50.9267C128.233 50.1827 130.745 47.3255 131.108 44.007C131.199 43.2183 131.244 36.9682 131.229 28.4265C131.184 15.9412 131.153 14.1555 130.957 14.0364C130.821 13.9471 127.28 13.9025 121.955 13.9322L113.18 13.962L112.484 13.6197C112.045 13.4114 111.425 12.8757 110.835 12.206C109.579 10.7923 105.933 6.99764 102.756 3.7982C101.349 2.38449 100.26 1.17912 100.335 1.11959C100.577 0.941018 136.978 1.16424 137.84 1.35769C139.399 1.71484 140.73 2.51842 142.183 3.97677C143.65 5.45 144.452 6.53632 144.8 7.5036C144.997 8.03932 145.027 10.7328 145.027 26.5961C145.027 37.8462 144.966 45.6142 144.876 46.4773C144.785 47.2511 144.573 48.3969 144.407 49.0071C143.938 50.6886 142.364 53.6649 140.987 55.525C140.11 56.7006 138.052 58.7096 136.948 59.4983C135.859 60.2572 133.181 61.6709 131.834 62.1918C127.991 63.6799 122.378 64.2453 118.021 63.5906Z" fill="url(#paint3_linear_245_195)"/>
<path d="M209.943 63.7242C209.58 63.5903 209.58 63.5754 209.686 62.0575C209.974 57.9355 210.155 56.7003 210.624 55.867C211.714 53.8878 213.922 52.2955 216.994 51.2985L218.174 50.9264L226.661 50.9711C233.242 51.0008 235.194 50.9711 235.376 50.8371C235.557 50.6735 235.618 49.7955 235.693 45.5246C235.754 42.6972 235.845 40.1079 235.89 39.7507C236.026 38.59 236.722 38.6644 226.691 38.6644C217.856 38.6495 217.705 38.6495 216.631 38.3221C214.24 37.6078 212.046 35.8816 210.836 33.7536L210.155 32.5631V20.5094V8.45569L210.67 7.48841C211.895 5.19672 213.453 3.70861 216.177 2.28002C218.31 1.14905 217.917 1.17881 234.891 1.11929C247.918 1.08953 249.99 1.10441 250.247 1.29786C250.535 1.5062 250.55 1.68477 250.55 4.39314V7.2652L250.021 8.15806C249.294 9.42296 247.872 11.0004 246.647 11.923C245.331 12.9051 245.088 13.0242 243.666 13.4409C242.577 13.7534 242.229 13.7683 233.908 13.8427C229.173 13.8873 225.269 13.9468 225.239 13.9617C225.209 13.9915 225.194 16.7147 225.194 20.0034C225.194 26.9381 225.088 26.4767 226.646 26.3279C228.688 26.1345 235.255 25.9559 237.161 26.0303C242.819 26.2386 246.072 27.2208 248.008 29.2893C249.067 30.4202 249.355 30.8071 249.99 31.9381L250.474 32.8012L250.444 44.5127L250.399 56.2241L249.96 57.0426C248.462 59.87 245.921 62.1319 243.137 63.1141L242.078 63.4861L226.328 63.5903C217.659 63.6498 210.518 63.7242 210.443 63.7689C210.367 63.8135 210.14 63.7986 209.943 63.7242Z" fill="url(#paint4_linear_245_195)"/>
<path d="M378.848 63.6787C378.56 63.4853 378.56 63.0835 378.575 51C378.591 43.5892 378.651 37.8748 378.757 36.9522C378.969 34.7944 379.604 33.1575 381.026 31.1039C382.116 29.5414 382.781 28.8718 384.34 27.8301C386.019 26.714 385.066 26.7735 400.77 26.7289C410.725 26.6842 414.885 26.6247 415.037 26.5205C415.188 26.3866 415.233 25.1515 415.233 20.3449V14.3329L414.84 14.0948C414.507 13.8716 414.189 13.8567 412.086 13.9758C410.785 14.0353 405.067 14.0948 399.393 14.1097C392.948 14.1097 389.015 14.1692 388.924 14.2585C388.848 14.3478 388.757 15.3895 388.727 16.5948C388.697 18.1425 388.621 18.8419 388.485 18.9758C388.334 19.1246 387.26 19.1693 383.719 19.1693C381.208 19.1693 379.029 19.1246 378.863 19.0502C378.606 18.946 378.591 18.7377 378.666 14.5115C378.742 10.4192 378.848 9.24356 379.226 8.45486C379.302 8.29116 379.559 7.72568 379.801 7.18996C380.24 6.20781 381.253 4.64529 382.191 3.51432C382.887 2.6661 385.217 1.1631 386.14 0.954768C387.577 0.612502 393.78 0.478572 404.794 0.538097C414.22 0.58274 416.096 0.627384 417.094 0.835719C420.71 1.56489 423.433 4.49648 424.946 9.27332L425.294 10.3894V20.3598C425.294 29.6605 425.279 30.4045 425.007 31.3718C424.356 33.7825 422.647 36.6695 420.998 38.1873C419.923 39.1695 418.547 39.7796 417.003 39.9582C416.323 40.0326 409.711 40.107 402.328 40.1368C394.93 40.1665 388.863 40.2261 388.833 40.2558C388.818 40.2707 388.772 42.488 388.742 45.1666C388.697 49.0208 388.727 50.0774 388.878 50.2262C389.045 50.3899 392.419 50.4048 407.048 50.375C422.631 50.3303 425.037 50.3452 425.188 50.5387C425.324 50.7024 425.37 52.3244 425.34 57.2054L425.294 63.6489L424.916 63.7531C424.704 63.8126 414.326 63.8573 401.829 63.8722C382.691 63.887 379.09 63.8573 378.848 63.6787Z" fill="url(#paint5_linear_245_195)"/>
<path d="M459.903 63.7376L459.555 63.6037L459.54 56.3417C459.525 52.3535 459.479 48.8862 459.419 48.6332L459.328 48.1868L445.258 48.2315C436.483 48.2612 431.112 48.2166 430.976 48.1273C430.688 47.9338 430.613 36.9962 430.9 36.2521C431.006 35.9992 431.823 34.9426 432.731 33.9009C433.623 32.8592 434.728 31.5199 435.167 30.9396C435.605 30.3592 436.301 29.5556 436.695 29.139C437.088 28.7372 437.95 27.7253 438.616 26.9217C440.537 24.5556 444.925 19.3025 448.284 15.3739C451.279 11.862 452.822 10.0167 453.957 8.61789C454.502 7.94824 455.258 7.02561 455.651 6.57917C456.045 6.13274 456.695 5.32916 457.089 4.79344C457.724 3.91545 458.798 2.63567 460.145 1.13268L460.568 0.641602H464.487C468.557 0.641602 469.54 0.74577 469.54 1.20708C469.555 1.34101 469.54 8.82622 469.54 17.8293C469.525 31.892 469.555 34.2432 469.752 34.4962C469.949 34.7789 470.16 34.7938 472.868 34.8087C475.138 34.8384 475.819 34.8831 475.925 35.0319C476.106 35.3146 475.909 47.6809 475.713 47.9338C475.592 48.0678 474.835 48.1124 472.884 48.1124C470.811 48.1124 470.13 48.157 469.903 48.3207C469.631 48.5291 469.616 48.8118 469.57 55.9696C469.54 62.6215 469.51 63.4251 469.283 63.6037C469.101 63.7674 468.073 63.8269 464.638 63.8418C462.127 63.8715 460.084 63.812 459.903 63.7376ZM454.608 34.7343C458.738 34.7194 458.965 34.7045 459.252 34.4218C459.54 34.139 459.555 33.9307 459.555 28.2461C459.555 23.0377 459.525 22.3532 459.313 22.2639C458.934 22.13 458.496 22.4573 457.285 23.8115C456.665 24.5109 455.606 25.6717 454.94 26.386C454.275 27.1003 452.989 28.514 452.066 29.5259C451.158 30.5378 449.796 31.9813 449.07 32.7253C447.467 34.3622 447.421 34.6152 448.662 34.7194C449.116 34.764 449.66 34.7789 449.872 34.7789C450.084 34.764 452.202 34.7492 454.608 34.7343Z" fill="url(#paint6_linear_245_195)"/>
<path d="M67.1856 63.5757C65.1886 63.4566 63.948 63.0846 62.072 62.0281C60.3321 61.0459 58.7436 59.7364 57.8358 58.5012C57.1853 57.6232 56.3381 55.9119 55.8691 54.5131C55.7329 54.1262 55.6875 48.1291 55.6875 31.1497C55.6875 11.1197 55.7178 8.26253 55.9144 7.90538C56.0355 7.69705 56.3683 7.1018 56.6558 6.61072C57.3214 5.43511 59.6362 3.23271 61.013 2.47377C61.5727 2.17615 62.5864 1.74459 63.2521 1.55114L64.4624 1.17911L79.5159 1.08982C87.7915 1.04518 94.6904 1.04518 94.8417 1.07494C95.2502 1.14935 95.1594 1.41721 94.3727 2.29519C93.6314 3.11366 92.5724 4.48272 91.241 6.37262C90.8325 6.95299 90.2727 7.75657 89.9701 8.15836C89.6827 8.57503 89.0019 9.54231 88.4724 10.3161C87.9428 11.0899 87.1561 12.1763 86.7628 12.712L86.0063 13.6941L84.4026 13.7834C83.5251 13.843 79.8639 13.8876 76.2631 13.8876C71.2403 13.8876 69.682 13.9322 69.4853 14.0811C69.2432 14.2447 69.1978 14.7805 69.0768 19.0216C68.8952 24.9889 68.8952 25.6735 69.0617 25.9413C69.1827 26.1199 70.9831 26.1497 82.224 26.105C94.403 26.0604 95.2502 26.0752 95.2502 26.3133C95.2502 26.4622 94.7509 27.0872 94.1307 27.7271C93.5255 28.3669 92.5421 29.5872 91.9672 30.4354C91.3772 31.2836 90.3635 32.6825 89.7129 33.5605C89.0473 34.4533 88.1849 35.7033 87.7613 36.373C87.3528 37.0278 86.7628 37.8313 86.4602 38.1587L85.9155 38.7391H77.6853C73.1617 38.7391 69.3642 38.7986 69.2583 38.873C69.1071 38.9623 69.0617 39.8403 69.0314 42.6975C69.0011 45.9267 69.0314 46.5517 69.2886 47.519C69.5458 48.516 69.6668 48.7243 70.4384 49.4684C71.4369 50.4505 72.4506 51.0011 73.6912 51.2244C75.3705 51.5369 92.7842 51.3434 94.6148 51.0011C95.3561 50.8523 95.2502 51.2541 94.2366 52.3553C93.7524 52.8613 92.9506 53.8434 92.4664 54.528C91.9672 55.2125 91.0141 56.5518 90.3332 57.4893C89.6676 58.4268 88.6539 59.9001 88.0941 60.7632C87.5344 61.6263 86.8081 62.6233 86.4904 62.9953L85.9004 63.665H77.3676C72.6775 63.665 68.1085 63.6203 67.1856 63.5757Z" fill="url(#paint7_linear_245_195)"/>
<path d="M279.749 63.5726C277.904 63.3047 275.831 61.9059 274.772 60.1946C273.985 58.8999 273.259 56.9059 272.639 54.3612C272.336 53.0963 271.973 51.7867 271.852 51.4594C271.625 50.879 271.247 49.629 270.521 47.0694C270.037 45.4027 269.371 43.3194 268.72 41.489C268.085 39.733 267.238 36.9651 266.814 35.3431C266.663 34.7181 266.39 33.7955 266.224 33.3044C266.058 32.8133 265.543 31.2061 265.074 29.7329C264.605 28.2597 264.091 26.6525 263.924 26.1614C263.758 25.6704 263.516 24.8965 263.395 24.4501C263.274 24.0037 263.077 23.3638 262.956 23.0364C262.835 22.709 262.502 21.5334 262.2 20.4322C261.489 17.7983 261.156 16.7715 258.659 9.34577C257.51 5.90823 256.481 2.73855 256.375 2.307C256.072 1.01234 256.012 1.02722 259.93 1.14627C263.607 1.26532 265.785 1.5183 266.996 1.99449C269.174 2.82783 271.201 4.39035 271.913 5.75942C272.124 6.17609 272.533 7.18801 272.82 8.00647C273.108 8.82493 273.547 10.1047 273.789 10.8339C274.409 12.6345 275.226 15.5512 275.438 16.7268C275.528 17.2476 275.74 18.081 275.907 18.587C276.073 19.0929 276.3 20.0304 276.406 20.6703C276.527 21.3102 276.724 22.1435 276.845 22.5156C276.966 22.8876 277.374 24.3311 277.752 25.715C278.131 27.1138 278.569 28.6466 278.736 29.1377C279.447 31.2359 279.825 32.471 279.992 33.3044C280.082 33.7955 280.324 34.8223 280.521 35.5961C280.718 36.355 280.884 37.1437 280.884 37.3521C280.884 37.5455 281.051 38.2152 281.247 38.855C281.459 39.4801 281.716 40.4027 281.837 40.8938C281.958 41.3848 282.155 42.2182 282.291 42.7539C282.412 43.2896 282.624 44.1527 282.745 44.6884C283.244 46.8462 283.789 48.6171 284.076 49.0189C284.485 49.5843 285.166 49.6141 285.499 49.0933C285.786 48.6766 286.27 47.1885 286.482 46.1022C286.573 45.7004 286.769 45.0307 286.921 44.614C287.405 43.3343 287.707 42.4265 288.146 40.9682C288.373 40.1943 288.706 39.1527 288.872 38.6616C289.039 38.1705 289.296 37.4562 289.417 37.0693C289.553 36.6675 289.765 36.0425 289.901 35.6556C290.022 35.2538 290.264 34.6437 290.431 34.2717C290.582 33.8996 290.824 33.1705 290.945 32.6347C291.081 32.099 291.323 31.2359 291.49 30.7002C292.292 28.096 292.882 26.2656 293.078 25.8341C293.184 25.5662 293.426 24.7924 293.608 24.1227C293.895 22.9769 294.258 21.7566 295.181 18.7804C295.378 18.1554 295.65 17.3965 295.771 17.084C295.907 16.7863 296.331 15.3429 296.709 13.8994C297.677 10.2386 297.889 9.61363 298.994 7.36658C300.265 4.76238 301.399 3.54213 303.457 2.48557C305.348 1.53318 307.345 1.22067 311.959 1.19091C315.938 1.16115 315.863 1.11651 315.121 2.67902C314.486 4.00344 313.896 5.44691 313.609 6.36954C313.487 6.78621 313.291 7.21777 313.17 7.33682C313.064 7.47075 312.913 7.87254 312.822 8.22968C312.595 9.22672 311.385 12.9024 310.84 14.2565C310.235 15.7744 309.524 17.6346 309.236 18.4977C309.1 18.8697 308.873 19.5096 308.722 19.9114C308.57 20.328 308.374 20.8935 308.283 21.1763C308.207 21.459 307.754 22.6049 307.3 23.7061C306.831 24.8073 306.452 25.8341 306.452 25.9829C306.452 26.1317 306.347 26.4591 306.195 26.7269C306.059 26.9948 305.802 27.6644 305.605 28.2448C305.015 30.0752 303.623 33.8699 303.29 34.5693C303.124 34.9413 302.973 35.358 302.973 35.5217C302.973 35.6705 302.806 36.102 302.61 36.4889C302.413 36.861 301.793 38.5872 301.233 40.2985C300.658 42.0247 300.083 43.6616 299.932 43.9444C299.659 44.4503 298.434 48.0218 298.434 48.2897C298.434 48.3492 298.298 48.6915 298.146 49.0486C297.375 50.7004 295.711 55.2689 295.711 55.7302C295.711 55.8344 295.59 56.1618 295.423 56.4445C295.272 56.7273 295.09 57.2035 295.03 57.4862C294.969 57.769 294.667 58.4833 294.379 59.0487C293.214 61.3255 291.868 62.6202 290.173 63.141C288.449 63.6619 282.2 63.9149 279.749 63.5726Z" fill="url(#paint8_linear_245_195)"/>
<path d="M361.856 19.4366C361.795 19.2878 361.75 15.3294 361.75 10.6418C361.75 3.23104 361.78 2.10008 361.977 1.98103C362.28 1.78757 371.206 1.78757 371.508 1.98103C371.856 2.20425 371.917 3.88581 371.841 11.9216C371.781 18.1717 371.735 19.2729 371.539 19.4366C371.372 19.5705 370.086 19.63 366.637 19.6598C362.264 19.7045 361.962 19.6896 361.856 19.4366Z" fill="url(#paint9_linear_245_195)"/>
<defs>
<linearGradient id="paint0_linear_245_195" x1="0" y1="32.5373" x2="49.6359" y2="32.5373" gradientUnits="userSpaceOnUse">
<stop stop-color="#DFBD69"/>
<stop offset="1" stop-color="#97743A"/>
</linearGradient>
<linearGradient id="paint1_linear_245_195" x1="145.383" y1="32.638" x2="204.695" y2="32.638" gradientUnits="userSpaceOnUse">
<stop stop-color="#DFBD69"/>
<stop offset="1" stop-color="#97743A"/>
</linearGradient>
<linearGradient id="paint2_linear_245_195" x1="321.875" y1="32.6655" x2="335.025" y2="32.6655" gradientUnits="userSpaceOnUse">
<stop stop-color="#DFBD69"/>
<stop offset="1" stop-color="#97743A"/>
</linearGradient>
<linearGradient id="paint3_linear_245_195" x1="100.242" y1="32.4572" x2="145.027" y2="32.4572" gradientUnits="userSpaceOnUse">
<stop stop-color="#DFBD69"/>
<stop offset="1" stop-color="#97743A"/>
</linearGradient>
<linearGradient id="paint4_linear_245_195" x1="209.625" y1="32.4507" x2="250.55" y2="32.4507" gradientUnits="userSpaceOnUse">
<stop stop-color="#DFBD69"/>
<stop offset="1" stop-color="#97743A"/>
</linearGradient>
<linearGradient id="paint5_linear_245_195" x1="378.57" y1="32.2" x2="425.349" y2="32.2" gradientUnits="userSpaceOnUse">
<stop stop-color="#EE3628"/>
<stop offset="1" stop-color="#C7281F"/>
</linearGradient>
<linearGradient id="paint6_linear_245_195" x1="430.719" y1="32.2456" x2="475.996" y2="32.2456" gradientUnits="userSpaceOnUse">
<stop stop-color="#EE3628"/>
<stop offset="1" stop-color="#C7281F"/>
</linearGradient>
<linearGradient id="paint7_linear_245_195" x1="55.6875" y1="32.3596" x2="95.2502" y2="32.3596" gradientUnits="userSpaceOnUse">
<stop stop-color="#DFBD69"/>
<stop offset="1" stop-color="#97743A"/>
</linearGradient>
<linearGradient id="paint8_linear_245_195" x1="256.25" y1="32.4121" x2="315.518" y2="32.4121" gradientUnits="userSpaceOnUse">
<stop stop-color="#DFBD69"/>
<stop offset="1" stop-color="#97743A"/>
</linearGradient>
<linearGradient id="paint9_linear_245_195" x1="361.75" y1="10.7577" x2="371.87" y2="10.7577" gradientUnits="userSpaceOnUse">
<stop stop-color="#EE3628"/>
<stop offset="1" stop-color="#C7281F"/>
</linearGradient>
</defs>
</svg>
