<svg xmlns="http://www.w3.org/2000/svg" width="476" height="65" fill="none"><path fill="url(#a)" d="M46.913 63.59c-6.188-1.533-9.88-5.179-10.969-10.863-.076-.387-.181-8.214-.227-17.426-.076-13.572-.136-16.86-.303-17.47-.15-.491-.484-1.057-1.028-1.697-.893-1.027-1.543-1.488-2.83-1.964-.801-.298-1.059-.313-7.912-.298-4.387.015-7.277-.03-7.64-.119-.318-.09-.984-.52-1.543-1.012-.545-.461-1.77-1.413-2.724-2.113-.953-.684-2.995-2.277-4.538-3.512C5.655 5.881 3.689 4.32 2.81 3.664a68.186 68.186 0 0 1-2.27-1.786c-.62-.55-.65-.61-.377-.73.181-.074 8.427-.103 19.894-.059 17.686.075 19.729.12 21.03.343 1.694.312 3.238.982 4.705 2.053 1.997 1.459 3.056 2.976 3.555 5.12.273 1.13.288 2.44.288 28.095 0 26.473 0 26.92-.288 27.128-.378.268-.453.268-2.435-.238Z"/><path fill="url(#b)" d="M200.324 63.887c-3.585-.119-5.719-.357-6.959-.774-2.966-.967-5.356-3.72-6.203-7.128a34.798 34.798 0 0 0-.59-1.92 49.233 49.233 0 0 1-.742-2.232c-.226-.699-.59-1.904-.832-2.678a24.553 24.553 0 0 1-.559-1.935c-.046-.282-.288-1.116-.53-1.86-.242-.73-.787-2.44-1.21-3.795-.424-1.354-1.014-3.184-1.301-4.092-.288-.893-.681-2.143-.878-2.753a142.76 142.76 0 0 1-1.573-5.283 30.588 30.588 0 0 0-.605-1.786c-.243-.654-.56-1.488-.696-1.86-.364-1.026-1.014-3.378-1.241-4.494-.106-.565-.333-1.265-.499-1.562-.152-.313-.333-.834-.378-1.176-.137-.729-.893-2.068-1.302-2.292-.62-.327-1.391.551-1.588 1.786-.061.372-.272 1.072-.469 1.578-.197.49-.363.997-.363 1.116 0 .327-1.044 4.568-1.438 5.788-.196.61-.408 1.414-.469 1.786-.06.372-.226.997-.393 1.384-.151.402-.408 1.34-.59 2.084a43.587 43.587 0 0 1-.605 2.41c-.923 3.17-1.241 4.241-1.498 4.911-.272.7-.771 2.783-1.301 5.432-.333 1.666-.998 4.211-1.891 7.217-.257.908-.666 2.277-.893 3.05-.938 3.155-1.755 4.718-3.162 6.102-1.044 1.027-2.451 1.845-3.948 2.321-1.181.372-10.092.506-10.228.164-.045-.119.121-.744.378-1.369.258-.625.469-1.28.469-1.458 0-.179.152-.625.318-.997.167-.358.439-1.236.605-1.935.152-.7.575-2.039.908-2.976a42.72 42.72 0 0 0 .847-2.515c.121-.447.333-.967.454-1.146.121-.178.348-.923.499-1.652a56.92 56.92 0 0 1 .833-3.02c.302-.938.696-2.203.862-2.813.151-.61.393-1.31.514-1.548.137-.238.394-1.012.59-1.726.197-.7.545-1.845.757-2.545.227-.7.529-1.711.681-2.247a13.9 13.9 0 0 1 .59-1.666c.181-.373.317-.79.317-.908 0-.12.167-.76.379-1.399.211-.655.544-1.816.756-2.574.726-2.768.953-3.512 1.589-5.268.65-1.86 1.361-4.018 1.755-5.432.121-.446.363-1.19.514-1.637.151-.446.53-1.756.832-2.902.893-3.393 2.088-6.89 2.875-8.408.59-1.13 2.027-2.47 3.298-3.065 1.709-.789 3.374-1.012 6.838-.893 1.589.045 3.374.179 3.979.298 3.54.714 5.432 2.961 7.156 8.482.227.744.605 1.89.863 2.545.242.654.801 2.232 1.24 3.497.439 1.265.923 2.544 1.059 2.827.152.283.318.744.378 1.027.061.283.273.803.469 1.175.197.372.364.76.364.878 0 .12.438 1.295.968 2.62.529 1.324 1.15 2.976 1.377 3.675.227.7.62 1.83.847 2.53.242.7.439 1.384.439 1.503s.136.491.317.804c.454.863 1.12 2.678 1.891 5.134.364 1.19.802 2.425.954 2.753.151.327.423 1.026.605 1.562.181.536.499 1.399.711 1.935.378.982.983 2.604 1.558 4.24.182.492.424 1.057.53 1.266.121.208.287.67.378 1.041.106.372.333 1.072.529 1.563 1.12 2.842 1.619 4.256 2.209 6.101.348 1.146 1.12 2.947 1.528 3.587.167.267.363.699.439.952.106.372.076.476-.151.595-.152.09-.469.134-.711.12a181.1 181.1 0 0 0-3.45-.12Z"/><path fill="url(#c)" d="M321.882 63.859c-.015-.104 0-12.188 0-26.83.015-28.409-.015-27.352.741-28.721.166-.328.318-.64.318-.7 0-.06.272-.535.62-1.071 1.12-1.77 4.72-4.092 7.096-4.598 1.921-.417 4.069-.73 4.236-.625.166.104.181 46.965.015 52.099l-.091 2.678-.756 1.22c-1.77 2.887-4.373 4.926-7.414 5.804-1.407.417-3.812.923-4.342.923-.242 0-.423-.09-.423-.179Z"/><path fill="url(#d)" d="M118.021 63.59c-4.296-.64-9.501-3.303-12.254-6.264-1.226-1.31-2.633-3.215-3.329-4.524-.408-.73-.847-1.518-.998-1.726-.152-.209-.484-1.102-.726-1.98l-.469-1.607v-5.52c-.016-3.022.045-5.566.105-5.626.076-.074.5.045.954.253 1.104.506 3.827 1.622 5.522 2.247 2.269.848 5.401 2.292 6.233 2.902.862.61.893.685 1.014 2.307.06.654.272 1.517.559 2.291.409 1.027.636 1.384 1.483 2.218 1.331 1.324 2.224 1.89 3.616 2.321 1.528.461 3.464.476 5.31.045 3.192-.744 5.704-3.602 6.067-6.92.091-.789.136-7.039.121-15.58-.045-12.486-.076-14.271-.272-14.39-.136-.09-3.677-.135-9.002-.105l-8.775.03-.696-.342c-.439-.209-1.059-.744-1.649-1.414-1.256-1.414-4.902-5.208-8.079-8.408-1.407-1.414-2.496-2.619-2.421-2.678.242-.179 36.643.044 37.505.238 1.559.357 2.89 1.16 4.343 2.619 1.467 1.473 2.269 2.56 2.617 3.527.197.535.227 3.229.227 19.092 0 11.25-.061 19.018-.151 19.881-.091.774-.303 1.92-.469 2.53-.469 1.682-2.043 4.658-3.42 6.518-.877 1.176-2.935 3.185-4.039 3.973-1.089.76-3.767 2.173-5.114 2.694-3.843 1.488-9.456 2.053-13.813 1.399Z"/><path fill="url(#e)" d="M209.943 63.724c-.363-.134-.363-.149-.257-1.666.288-4.123.469-5.358.938-6.191 1.09-1.98 3.298-3.572 6.37-4.569l1.18-.372 8.487.045c6.581.03 8.533 0 8.715-.134.181-.164.242-1.042.317-5.312.061-2.828.152-5.417.197-5.774.136-1.161.832-1.087-9.199-1.087-8.835-.014-8.986-.014-10.06-.342-2.391-.714-4.585-2.44-5.795-4.568l-.681-1.19V8.455l.515-.968c1.225-2.291 2.783-3.78 5.507-5.208 2.133-1.131 1.74-1.101 18.714-1.16 13.027-.03 15.099-.016 15.356.178.288.208.303.387.303 3.095v2.872l-.529.893c-.727 1.265-2.149 2.842-3.374 3.765-1.316.982-1.559 1.101-2.981 1.518-1.089.312-1.437.327-9.758.402-4.735.044-8.639.104-8.669.119-.03.03-.045 2.753-.045 6.041 0 6.935-.106 6.474 1.452 6.325 2.042-.194 8.609-.372 10.515-.298 5.658.209 8.911 1.19 10.847 3.26 1.059 1.13 1.347 1.517 1.982 2.648l.484.863-.03 11.712-.045 11.711-.439.819c-1.498 2.827-4.039 5.089-6.823 6.071l-1.059.372-15.75.104c-8.669.06-15.81.134-15.885.179-.076.044-.303.03-.5-.045Z"/><path fill="url(#f)" d="M378.848 63.679c-.288-.194-.288-.596-.273-12.679.016-7.41.076-13.125.182-14.048.212-2.158.847-3.794 2.269-5.848 1.09-1.563 1.755-2.232 3.314-3.274 1.679-1.116.726-1.056 16.43-1.101 9.955-.045 14.115-.104 14.267-.209.151-.133.196-1.369.196-6.175v-6.012l-.393-.238c-.333-.223-.651-.238-2.754-.12-1.301.06-7.019.12-12.693.135-6.445 0-10.378.06-10.469.149-.076.089-.167 1.13-.197 2.336-.03 1.547-.106 2.247-.242 2.38-.151.15-1.225.194-4.766.194-2.511 0-4.69-.044-4.856-.119-.257-.104-.272-.312-.197-4.539.076-4.092.182-5.267.56-6.056.076-.164.333-.73.575-1.265.439-.982 1.452-2.545 2.39-3.676.696-.848 3.026-2.35 3.949-2.56 1.437-.341 7.64-.475 18.654-.416 9.426.045 11.302.09 12.3.298 3.616.729 6.339 3.66 7.852 8.437l.348 1.116v9.97c0 9.301-.015 10.045-.287 11.013-.651 2.41-2.36 5.297-4.009 6.815-1.075.983-2.451 1.593-3.995 1.771-.68.075-7.292.149-14.675.179-7.398.03-13.465.09-13.495.119-.015.015-.061 2.232-.091 4.91-.045 3.855-.015 4.911.136 5.06.167.164 3.541.179 18.17.149 15.583-.045 17.989-.03 18.14.164.136.163.182 1.785.152 6.666l-.046 6.444-.378.104c-.212.06-10.59.104-23.087.12-19.138.014-22.739-.016-22.981-.194Z"/><path fill="url(#g)" d="m459.903 63.738-.348-.134-.015-7.262c-.015-3.989-.061-7.456-.121-7.709l-.091-.446-14.07.044c-8.775.03-14.146-.014-14.282-.104-.288-.193-.363-11.13-.076-11.875.106-.253.923-1.31 1.831-2.351.892-1.042 1.997-2.381 2.436-2.961a25.617 25.617 0 0 1 1.528-1.801c.393-.402 1.255-1.414 1.921-2.217 1.921-2.366 6.309-7.62 9.668-11.548 2.995-3.512 4.538-5.357 5.673-6.756a90.46 90.46 0 0 1 1.694-2.039 31.283 31.283 0 0 0 1.438-1.786c.635-.878 1.709-2.157 3.056-3.66l.423-.491h3.919c4.07 0 5.053.104 5.053.565.015.134 0 7.62 0 16.622-.015 14.063.015 16.414.212 16.667.197.283.408.298 3.116.313 2.27.03 2.951.074 3.057.223.181.283-.016 12.649-.212 12.902-.121.134-.878.178-2.829.178-2.073 0-2.754.045-2.981.209-.272.208-.287.49-.333 7.649-.03 6.651-.06 7.455-.287 7.634-.182.163-1.21.223-4.645.238-2.511.03-4.554-.03-4.735-.104Zm-5.295-29.004c4.13-.015 4.357-.03 4.644-.312.288-.283.303-.491.303-6.176 0-5.208-.03-5.893-.242-5.982-.379-.134-.817.193-2.028 1.547-.62.7-1.679 1.86-2.345 2.575-.665.714-1.951 2.128-2.874 3.14a127.023 127.023 0 0 1-2.996 3.2c-1.603 1.636-1.649 1.89-.408 1.993.454.045.998.06 1.21.06.212-.015 2.33-.03 4.736-.045Z"/><path fill="url(#h)" d="M67.186 63.576c-1.997-.12-3.238-.491-5.114-1.548-1.74-.982-3.328-2.292-4.236-3.527-.65-.878-1.498-2.59-1.967-3.988-.136-.387-.181-6.384-.181-23.363 0-20.03.03-22.887.226-23.245.121-.208.454-.803.742-1.294.665-1.176 2.98-3.378 4.357-4.137.56-.298 1.573-.73 2.24-.923l1.21-.372 15.053-.09c8.275-.044 15.174-.044 15.326-.014.408.074.317.342-.47 1.22-.74.819-1.8 2.188-3.131 4.078-.409.58-.968 1.384-1.27 1.785-.288.417-.97 1.384-1.499 2.158-.53.774-1.316 1.86-1.71 2.396l-.756.982-1.603.09c-.878.059-4.54.104-8.14.104-5.023 0-6.581.044-6.778.193-.242.164-.287.7-.408 4.94-.182 5.968-.182 6.652-.015 6.92.12.179 1.921.209 13.162.164 12.179-.045 13.026-.03 13.026.208 0 .15-.5.774-1.12 1.414-.605.64-1.588 1.86-2.163 2.708a156.05 156.05 0 0 1-2.254 3.125 54.275 54.275 0 0 0-1.952 2.813c-.408.655-.998 1.458-1.3 1.786l-.546.58h-8.23c-4.523 0-8.32.06-8.427.134-.15.09-.196.967-.227 3.825-.03 3.229 0 3.854.258 4.821.257.997.378 1.205 1.15 1.95.998.981 2.012 1.532 3.252 1.755 1.68.313 19.093.12 20.924-.223.741-.149.635.253-.378 1.354-.485.506-1.286 1.488-1.77 2.173-.5.684-1.453 2.024-2.134 2.961-.665.938-1.68 2.411-2.239 3.274-.56.863-1.286 1.86-1.604 2.232l-.59.67h-8.532c-4.69 0-9.26-.045-10.182-.09Z"/><path fill="url(#i)" d="M279.749 63.573c-1.845-.268-3.918-1.667-4.977-3.378-.787-1.295-1.513-3.29-2.133-5.834-.303-1.265-.666-2.574-.787-2.902-.227-.58-.605-1.83-1.331-4.39-.484-1.666-1.15-3.75-1.801-5.58a85.268 85.268 0 0 1-1.906-6.146 29.034 29.034 0 0 0-.59-2.039c-.166-.49-.681-2.098-1.15-3.571-.469-1.473-.983-3.08-1.15-3.572a35.849 35.849 0 0 1-.529-1.71 20.635 20.635 0 0 0-.439-1.415c-.121-.327-.454-1.503-.756-2.604-.711-2.634-1.044-3.66-3.541-11.086-1.149-3.438-2.178-6.607-2.284-7.039-.303-1.295-.363-1.28 3.555-1.16 3.677.118 5.855.371 7.066.847 2.178.834 4.205 2.396 4.917 3.765.211.417.62 1.429.907 2.247.288.819.727 2.099.969 2.828.62 1.8 1.437 4.717 1.649 5.893.09.52.302 1.354.469 1.86.166.506.393 1.443.499 2.083.121.64.318 1.473.439 1.846.121.372.529 1.815.907 3.199.379 1.399.817 2.932.984 3.423.711 2.098 1.089 3.333 1.256 4.166.09.491.332 1.518.529 2.292.197.759.363 1.548.363 1.756 0 .194.167.863.363 1.503.212.625.469 1.548.59 2.039.121.49.318 1.324.454 1.86.121.536.333 1.399.454 1.934.499 2.158 1.044 3.93 1.331 4.33.409.566 1.09.596 1.423.075.287-.416.771-1.905.983-2.99.091-.403.287-1.072.439-1.489.484-1.28.786-2.188 1.225-3.646.227-.774.56-1.815.726-2.306.167-.492.424-1.206.545-1.593.136-.402.348-1.027.484-1.413.121-.402.363-1.012.53-1.384.151-.372.393-1.102.514-1.637a45.13 45.13 0 0 1 .545-1.935c.802-2.604 1.392-4.434 1.588-4.866.106-.268.348-1.042.53-1.711.287-1.146.65-2.366 1.573-5.343.197-.625.469-1.384.59-1.696.136-.298.56-1.741.938-3.185.968-3.66 1.18-4.285 2.285-6.532 1.271-2.605 2.405-3.825 4.463-4.881 1.891-.953 3.888-1.265 8.502-1.295 3.979-.03 3.904-.074 3.162 1.488-.635 1.324-1.225 2.768-1.512 3.69-.122.417-.318.849-.439.968-.106.134-.257.536-.348.893-.227.997-1.437 4.672-1.982 6.027-.605 1.517-1.316 3.378-1.604 4.24-.136.373-.363 1.013-.514 1.414-.152.417-.348.982-.439 1.265-.076.283-.529 1.429-.983 2.53-.469 1.101-.848 2.128-.848 2.277 0 .149-.105.476-.257.744-.136.268-.393.937-.59 1.518-.59 1.83-1.982 5.625-2.315 6.324-.166.372-.317.789-.317.953 0 .148-.167.58-.363.967-.197.372-.817 2.098-1.377 3.81-.575 1.726-1.15 3.363-1.301 3.645-.273.506-1.498 4.078-1.498 4.346 0 .06-.136.401-.288.759-.771 1.651-2.435 6.22-2.435 6.681 0 .104-.121.432-.288.715a4.869 4.869 0 0 0-.393 1.041c-.061.283-.363.997-.651 1.563-1.165 2.276-2.511 3.571-4.206 4.092-1.724.52-7.973.774-10.424.432Z"/><path fill="url(#j)" d="M361.856 19.437c-.061-.15-.106-4.108-.106-8.795 0-7.411.03-8.542.227-8.661.303-.193 9.229-.193 9.531 0 .348.223.409 1.905.333 9.94-.06 6.25-.106 7.352-.302 7.516-.167.133-1.453.193-4.902.223-4.373.044-4.675.03-4.781-.223Z"/><defs><linearGradient id="a" x1="0" x2="49.636" y1="32.537" y2="32.537" gradientUnits="userSpaceOnUse"><stop stop-color="#DFBD69"/><stop offset="1" stop-color="#97743A"/></linearGradient><linearGradient id="b" x1="145.383" x2="204.695" y1="32.638" y2="32.638" gradientUnits="userSpaceOnUse"><stop stop-color="#DFBD69"/><stop offset="1" stop-color="#97743A"/></linearGradient><linearGradient id="c" x1="321.875" x2="335.025" y1="32.666" y2="32.666" gradientUnits="userSpaceOnUse"><stop stop-color="#DFBD69"/><stop offset="1" stop-color="#97743A"/></linearGradient><linearGradient id="d" x1="100.242" x2="145.027" y1="32.457" y2="32.457" gradientUnits="userSpaceOnUse"><stop stop-color="#DFBD69"/><stop offset="1" stop-color="#97743A"/></linearGradient><linearGradient id="e" x1="209.625" x2="250.55" y1="32.451" y2="32.451" gradientUnits="userSpaceOnUse"><stop stop-color="#DFBD69"/><stop offset="1" stop-color="#97743A"/></linearGradient><linearGradient id="f" x1="378.57" x2="425.349" y1="32.2" y2="32.2" gradientUnits="userSpaceOnUse"><stop stop-color="#EE3628"/><stop offset="1" stop-color="#C7281F"/></linearGradient><linearGradient id="g" x1="430.719" x2="475.996" y1="32.246" y2="32.246" gradientUnits="userSpaceOnUse"><stop stop-color="#EE3628"/><stop offset="1" stop-color="#C7281F"/></linearGradient><linearGradient id="h" x1="55.688" x2="95.25" y1="32.36" y2="32.36" gradientUnits="userSpaceOnUse"><stop stop-color="#DFBD69"/><stop offset="1" stop-color="#97743A"/></linearGradient><linearGradient id="i" x1="256.25" x2="315.518" y1="32.412" y2="32.412" gradientUnits="userSpaceOnUse"><stop stop-color="#DFBD69"/><stop offset="1" stop-color="#97743A"/></linearGradient><linearGradient id="j" x1="361.75" x2="371.87" y1="10.758" y2="10.758" gradientUnits="userSpaceOnUse"><stop stop-color="#EE3628"/><stop offset="1" stop-color="#C7281F"/></linearGradient></defs></svg>